# xmcd
#
# Track frame offsets:
#	182
#	9730
#	18907
#	28007
#	41007
#	50407
#	59697
#	70650
#	81772
#	92827
#	106107
#	117887
#	128657
#	140050
#	149565
#	159812
#	169447
#	178432
#	188705
#	200815
#	210297
#	221127
#	231092
#	241382
#
# Disc length: 3379 seconds
#
# Revision: 2
# Processed by: cddbd v1.5.1PL0 Copyright (c) Steve Scherf et al.
# Submitted via: MusicWizard 7.0.2
#
DISCID=600d3118
DTITLE=Waylon Jennings - 2 Gether On 1
DYEAR=1995
DGENRE=Country
TTITLE0=Leavin' Town
TTITLE1=Time To Bum Again
TTITLE2=If You Really Want Me To I'll Go
TTITLE3=Baby Don't Be Looking In My Mind
TTITLE4=But That's Alright
TTITLE5=Time Will Tell The Story
TTITLE6=You're Gonna Wonder About Me
TTITLE7=For Lovin' Me
TTITLE8=Anita You're Dreaming
TTITLE9=Doesn't Anybody Know My Name
TTITLE10=Falling For You
TTITLE11=I Wonder Just Where I Went Wrong
TTITLE12=She Called Me Baby
TTITLE13=Sunset And Vine
TTITLE14=Woman Let Me Sing You A Song
TTITLE15=The Everglades
TTITLE16=She's Gone Gone Gone
TTITLE17=Busted
TTITLE18=Beautiful Annabel Lee
TTITLE19=Heartaches By The Number
TTITLE20=Tiger By The Tail
TTITLE21=Heartaches For A Dime
TTITLE22=Foolin' 'round
TTITLE23=In This Very Same Room
EXTD=
EXTT0=HARLAN HOWARD
EXTT1=HARLAN HOWARD
EXTT2=
EXTT3=HARLAN HOWARD
EXTT4=AUTRY INMAN
EXTT5=
EXTT6=
EXTT7=GORDON LIGHTFOOT
EXTT8=WAYLON JENNINGS/DON BOWMAN
EXTT9=ROD McKUEN
EXTT10=
EXTT11=
EXTT12=HARLAN HOWARD
EXTT13=HARLAN HOWARD
EXTT14=HARLAN HOWARD
EXTT15=HARLAN HOWARD
EXTT16=HARLAN HOWARD
EXTT17=HARLAN HOWARD
EXTT18=HARLAN HOWARD
EXTT19=HARLAN HOWARD
EXTT20=HARLAN HOWARD
EXTT21=HARLAN HOWARD
EXTT22=HARLAN HOWARD
EXTT23=HARLAN HOWARD
PLAYORDER=
